<svg width="46" height="46" viewBox="0 0 46 46" fill="none" xmlns="http://www.w3.org/2000/svg">
<path opacity="0.2" d="M23 46C35.7025 46 46 35.7025 46 23C46 10.2975 35.7025 0 23 0C10.2975 0 0 10.2975 0 23C0 35.7025 10.2975 46 23 46Z" fill="#601DC0"/>
<path d="M22.96 8C19.9932 8 17.0931 8.87973 14.6264 10.528C12.1597 12.1762 10.2371 14.5189 9.10177 17.2597C7.96646 20.0006 7.66941 23.0166 8.24819 25.9264C8.82697 28.8361 10.2556 31.5088 12.3534 33.6066C14.4511 35.7044 17.1239 37.133 20.0336 37.7118C22.9433 38.2906 25.9593 37.9935 28.7002 36.8582C31.4411 35.7229 33.7838 33.8003 35.432 31.3336C37.0802 28.8668 37.96 25.9667 37.96 23C37.96 19.0218 36.3796 15.2064 33.5666 12.3934C30.7535 9.58035 26.9382 8 22.96 8ZM33.16 31.32L29.66 31.08L26.66 26.86L27.99 22.75L32.68 21.06L36.1 23.14C36.0924 26.1172 35.0694 29.0028 33.2 31.32H33.16ZM33.57 15.21C33.57 15.21 33.51 15.21 33.5 15.3L32.09 19.36L27.34 21.07L23.84 18.5V13.26L27.2 10.59C29.7574 11.4411 31.9938 13.053 33.61 15.21H33.57ZM18.76 10.54L22.06 13.25V18.59L18.61 21.09L13.76 19.36L12.35 15.3C13.9422 13.0878 16.1819 11.4246 18.76 10.54ZM16.51 31.08L12.8 31.33C10.8794 29.0077 9.81973 26.0935 9.79996 23.08L13.13 21.08L17.96 22.8L19.35 27.07L16.51 31.08ZM18.96 35.54L17.96 32.12L20.78 28.12H25.36L28.18 32.12L27.18 35.45C25.8109 35.9291 24.3705 36.1725 22.92 36.17C21.5755 36.1638 20.24 35.9514 18.96 35.54Z" fill="#601DC0"/>
</svg>
